<svg width="42" height="42" viewBox="0 0 42 42" fill="none" xmlns="http://www.w3.org/2000/svg">
<path d="M37.2544 25.3337H36.3174V20.346C36.3174 18.4836 34.8022 16.9684 32.9398 16.9684H31.8077L35.1093 10.715C35.4531 10.0638 35.5225 9.31784 35.3045 8.61449C35.0862 7.91032 34.6062 7.33338 33.9528 6.98991L21.2569 0.316947C19.9105 -0.390832 18.2376 0.126877 17.5279 1.47082L9.34558 16.9684H7.30723C5.44483 16.9684 3.92969 18.4836 3.92969 20.346V38.6223C3.92969 40.4847 5.44483 42 7.30723 42H32.9399C34.8023 42 36.3175 40.4847 36.3175 38.6223V33.6347H37.2545C37.7075 33.6347 38.0748 33.2673 38.0748 32.8143V26.154C38.0747 25.7009 37.7075 25.3337 37.2544 25.3337ZM18.9787 2.23684C19.2667 1.69133 19.9463 1.48157 20.4936 1.76917L33.1897 8.44214C33.4545 8.58135 33.6491 8.81506 33.7375 9.10012C33.8256 9.38428 33.7975 9.68575 33.6586 9.949L29.9526 16.9684H27.7506L29.8437 13.0039C29.9454 12.8112 29.9663 12.5861 29.9018 12.378C29.8373 12.17 29.6927 11.9961 29.4999 11.8947C28.9625 11.6123 28.5677 11.138 28.3884 10.5593C28.2094 9.98206 28.2664 9.36968 28.5487 8.83499C28.6504 8.6423 28.6713 8.4172 28.6067 8.20908C28.5423 8.00105 28.3976 7.82722 28.2048 7.72583L23.8995 5.46303C23.4991 5.25262 23.0037 5.40594 22.7924 5.80618C22.2083 6.91247 20.8305 7.33806 19.7212 6.75513C19.3208 6.54472 18.8254 6.69812 18.6141 7.09827L13.4029 16.9683H11.2008L18.9787 2.23684ZM26.8212 11.045C27.0478 11.7761 27.4736 12.4106 28.0492 12.8888L25.8953 16.9684H15.2582L19.7228 8.51227C21.2004 8.92629 22.8006 8.4318 23.7844 7.25611L26.7903 8.83598C26.5872 9.55376 26.5951 10.3156 26.8212 11.045ZM34.6768 38.6223C34.6768 39.5802 33.8976 40.3593 32.9399 40.3593H7.30723C6.34949 40.3593 5.57034 39.5802 5.57034 38.6223V20.346C5.57034 19.3882 6.34949 18.609 7.30723 18.609H32.9399C33.8976 18.609 34.6768 19.3882 34.6768 20.346V25.3337H31.4738C29.1852 25.3337 27.3232 27.1956 27.3232 29.4842C27.3232 31.7729 29.1851 33.6348 31.4738 33.6348H34.6768V38.6223ZM36.4341 31.994H31.4737C30.0897 31.994 28.9638 30.868 28.9638 29.4841C28.9638 28.1002 30.0897 26.9743 31.4737 26.9743H36.4341V31.994Z" fill="#F08F8E"/>
</svg>
