<svg width="17" height="17" viewBox="0 0 17 17" fill="none" xmlns="http://www.w3.org/2000/svg">
<path d="M11.9358 0H5.06421C3.72164 0.00177549 2.43457 0.535895 1.48523 1.48523C0.535895 2.43457 0.00177549 3.72164 0 5.06421V11.9358C0.00177549 13.2784 0.535895 14.5654 1.48523 15.5148C2.43457 16.4641 3.72164 16.9982 5.06421 17H11.9358C13.2785 16.9988 14.566 16.4649 15.5154 15.5154C16.4649 14.566 16.9988 13.2785 17 11.9358V5.06421C16.9982 3.72164 16.4641 2.43457 15.5148 1.48523C14.5654 0.535895 13.2784 0.00177549 11.9358 0ZM15.2911 11.9358C15.2911 12.8257 14.9376 13.6791 14.3083 14.3083C13.6791 14.9376 12.8257 15.2911 11.9358 15.2911H5.06421C4.17434 15.2911 3.32091 14.9376 2.69168 14.3083C2.06245 13.6791 1.70895 12.8257 1.70895 11.9358V5.06421C1.70895 4.17434 2.06245 3.32091 2.69168 2.69168C3.32091 2.06245 4.17434 1.70895 5.06421 1.70895H11.9358C12.8257 1.70895 13.6791 2.06245 14.3083 2.69168C14.9376 3.32091 15.2911 4.17434 15.2911 5.06421V11.9358Z" fill="#4A4548"/>
<path d="M8.50144 4.10449C7.63148 4.10405 6.78093 4.36165 6.0574 4.8447C5.33387 5.32774 4.76987 6.01454 4.43674 6.81819C4.10362 7.62185 4.01634 8.50625 4.18595 9.35951C4.35557 10.2128 4.77445 10.9966 5.3896 11.6117C6.00476 12.2269 6.78855 12.6458 7.64182 12.8154C8.49509 12.985 9.37949 12.8977 10.1831 12.5646C10.9868 12.2315 11.6736 11.6675 12.1566 10.9439C12.6397 10.2204 12.8973 9.36985 12.8968 8.49989C12.8957 7.33452 12.4322 6.21722 11.6082 5.39318C10.7841 4.56914 9.66681 4.10568 8.50144 4.10449ZM8.50144 11.1841C7.97056 11.1841 7.45159 11.0267 7.01017 10.7317C6.56876 10.4368 6.22471 10.0176 6.02155 9.52709C5.81839 9.03662 5.76523 8.49691 5.8688 7.97622C5.97237 7.45554 6.22802 6.97726 6.60342 6.60186C6.97881 6.22647 7.45709 5.97082 7.97778 5.86725C8.49847 5.76368 9.03817 5.81684 9.52865 6.02C10.0191 6.22316 10.4383 6.56721 10.7333 7.00862C11.0282 7.45004 11.1857 7.969 11.1857 8.49989C11.1857 9.21179 10.9029 9.89453 10.3995 10.3979C9.89608 10.9013 9.21334 11.1841 8.50144 11.1841Z" fill="#4A4548"/>
<path d="M12.923 5.19179C13.5234 5.19179 14.0101 4.70507 14.0101 4.10468C14.0101 3.50429 13.5234 3.01758 12.923 3.01758C12.3226 3.01758 11.8359 3.50429 11.8359 4.10468C11.8359 4.70507 12.3226 5.19179 12.923 5.19179Z" fill="#4A4548"/>
</svg>
