<svg width="42" height="42" viewBox="0 0 42 42" fill="none" xmlns="http://www.w3.org/2000/svg">
<g clip-path="url(#clip0_6074_78832)">
<path d="M24.6952 9.90552H17.3125C15.9555 9.90552 14.8516 11.0095 14.8516 12.3664V19.7492C14.8516 21.1061 15.9555 22.2101 17.3125 22.2101H24.6952C26.0521 22.2101 27.156 21.1061 27.156 19.7492V12.3664C27.156 11.0095 26.0521 9.90552 24.6952 9.90552V9.90552ZM19.7649 11.5461H22.2425V14.7629L21.5162 14.1818C21.2165 13.9421 20.7909 13.942 20.4913 14.1818L19.7649 14.7629V11.5461ZM25.5154 19.7492C25.5154 20.2015 25.1475 20.5695 24.6952 20.5695H17.3125C16.8601 20.5695 16.4922 20.2015 16.4922 19.7492V12.3664C16.4922 11.9141 16.8601 11.5461 17.3125 11.5461H18.1244V16.4696C18.1244 17.1556 18.9205 17.5394 19.4571 17.1102L21.0038 15.8729L22.5504 17.1102C23.0863 17.5388 23.8831 17.1566 23.8831 16.4696V11.5461H24.6951C25.1474 11.5461 25.5154 11.9141 25.5154 12.3664V19.7492H25.5154Z" fill="#D0D0D0"/>
<path d="M37.0607 16.4695C37.0607 7.38818 29.8573 0 21.0031 0C12.1488 0 4.94531 7.38818 4.94531 16.4695C4.94531 24.008 10.9807 30.9987 16.8149 35.7889C14.843 36.1664 12.3579 36.9842 12.3579 38.7082C12.3579 43.0981 29.6482 43.0964 29.6482 38.7082C29.6482 36.9842 27.1632 36.1664 25.1913 35.7889C31.0206 31.0025 37.0607 24.0112 37.0607 16.4695V16.4695ZM26.8039 37.924C27.7559 38.2978 27.9956 38.6398 28.0078 38.7054C27.9904 38.8062 27.6258 39.273 26.1569 39.7138C23.2905 40.5738 18.7171 40.5743 15.8491 39.7138C14.3802 39.273 14.0156 38.8062 13.9983 38.7108C14.0103 38.6397 14.25 38.2977 15.2022 37.9239C16.0669 37.5844 17.26 37.3237 18.5882 37.1817C19.7355 38.0424 20.491 38.5303 20.5601 38.5747C20.8299 38.7478 21.1761 38.7478 21.446 38.5747C21.5152 38.5303 22.2707 38.0424 23.4179 37.1817C24.746 37.3238 25.9392 37.5845 26.8039 37.924V37.924ZM21.0031 36.8962C19.8994 36.1374 16.9052 33.976 13.9481 30.9448C10.5895 27.5022 6.58591 22.1962 6.58591 16.4695C6.58591 8.29288 13.0534 1.6406 21.0031 1.6406C28.9527 1.6406 35.4202 8.29288 35.4202 16.4695C35.4202 22.1962 31.4167 27.5021 28.058 30.9448C25.1009 33.976 22.1066 36.1374 21.0031 36.8962Z" fill="#D0D0D0"/>
<path d="M21.002 4.11816C14.4186 4.11816 9.0625 9.47422 9.0625 16.0577C9.0625 22.6412 14.4186 27.9973 21.002 27.9973C27.5855 27.9973 32.9415 22.6412 32.9415 16.0577C32.9415 9.47422 27.5854 4.11816 21.002 4.11816V4.11816ZM21.002 26.3567C15.3232 26.3567 10.7031 21.7366 10.7031 16.0577C10.7031 10.3788 15.3232 5.75876 21.002 5.75876C26.6809 5.75876 31.301 10.3788 31.301 16.0577C31.3009 21.7365 26.6809 26.3567 21.002 26.3567Z" fill="#D0D0D0"/>
</g>
<defs>
<clipPath id="clip0_6074_78832">
<rect width="42" height="42" fill="white"/>
</clipPath>
</defs>
</svg>
