<svg width="21" height="21" viewBox="0 0 21 21" fill="none" xmlns="http://www.w3.org/2000/svg">
<path d="M18.597 9.59175C19.0118 10.1343 19.0118 10.8666 18.597 11.4083C17.2906 13.1136 14.1564 16.625 10.4971 16.625C6.83789 16.625 3.70364 13.1136 2.39727 11.4083C2.19548 11.1485 2.08594 10.8289 2.08594 10.5C2.08594 10.1711 2.19548 9.85151 2.39727 9.59175C3.70364 7.88638 6.83789 4.375 10.4971 4.375C14.1564 4.375 17.2906 7.88638 18.597 9.59175V9.59175Z" stroke="#F08F8E" stroke-width="2" stroke-linecap="round" stroke-linejoin="round"/>
<path d="M10.5 13.125C11.9497 13.125 13.125 11.9497 13.125 10.5C13.125 9.05025 11.9497 7.875 10.5 7.875C9.05025 7.875 7.875 9.05025 7.875 10.5C7.875 11.9497 9.05025 13.125 10.5 13.125Z" stroke="#F08F8E" stroke-width="2" stroke-linecap="round" stroke-linejoin="round"/>
</svg>
