<svg width="27" height="27" viewBox="0 0 27 27" fill="none" xmlns="http://www.w3.org/2000/svg">
<path d="M0.514923 13.61C0.514923 6.4909 6.28292 0.7229 13.402 0.7229C20.5211 0.7229 26.2891 6.4909 26.2891 13.61C26.2891 20.729 20.5211 26.497 13.402 26.497C6.28292 26.497 0.514923 20.729 0.514923 13.61ZM13.402 24.8342C19.5701 24.8342 24.6262 19.8405 24.6262 13.61C24.6262 7.44184 19.6325 2.38575 13.402 2.38575C7.23387 2.38575 2.17777 7.37949 2.17777 13.61C2.17777 19.7781 7.17151 24.8342 13.402 24.8342ZM14.0515 20.0275L20.0326 14.0517C20.2768 13.8074 20.2768 13.4125 20.0326 13.1683L14.0515 7.19242C13.8073 6.94819 13.4124 6.94819 13.1682 7.19242L12.8096 7.55097C12.5654 7.7952 12.5654 8.20052 12.82 8.43955L17.2629 12.7266H7.37417C7.03121 12.7266 6.7506 13.0072 6.7506 13.3502V13.8698C6.7506 14.2128 7.03121 14.4934 7.37417 14.4934H17.2629L12.8148 18.7804C12.5654 19.0246 12.5602 19.4247 12.8044 19.669L13.163 20.0275C13.4124 20.2718 13.8073 20.2718 14.0515 20.0275Z" fill="white"/>
</svg>
