<svg width="50" height="50" viewBox="0 0 50 50" fill="none" xmlns="http://www.w3.org/2000/svg">
<path d="M45.6055 11.7188H39.6444C40.5661 10.4937 41.1133 8.97178 41.1133 7.32422C41.1133 3.28564 37.8276 0 33.7891 0C31.3563 0 29.5625 0.871582 28.1437 2.74287C26.9566 4.3085 26.0887 6.49443 25 9.25635C23.9113 6.49434 23.0434 4.3085 21.8563 2.74287C20.4375 0.871582 18.6437 0 16.2109 0C12.1724 0 8.88672 3.28564 8.88672 7.32422C8.88672 8.97178 9.43389 10.4937 10.3556 11.7188H4.39453C1.97139 11.7188 0 13.6901 0 16.1133V19.043C0 20.9526 1.22471 22.5809 2.92969 23.1855V45.6055C2.92969 48.0286 4.90107 50 7.32422 50H42.6758C45.0989 50 47.0703 48.0286 47.0703 45.6055V23.1855C48.7753 22.5809 50 20.9526 50 19.043V16.1133C50 13.6901 48.0286 11.7188 45.6055 11.7188ZM27.6889 10.4238C29.9329 4.73066 30.786 2.92969 33.7891 2.92969C36.2122 2.92969 38.1836 4.90107 38.1836 7.32422C38.1836 9.74736 36.2122 11.7188 33.7891 11.7188H27.1765C27.356 11.2681 27.5271 10.8342 27.6889 10.4238ZM16.2109 2.92969C19.214 2.92969 20.0671 4.73066 22.3111 10.4238C22.4729 10.8342 22.644 11.2681 22.8235 11.7188H16.2109C13.7878 11.7188 11.8164 9.74736 11.8164 7.32422C11.8164 4.90107 13.7878 2.92969 16.2109 2.92969ZM19.1406 47.0703H7.32422C6.5165 47.0703 5.85938 46.4132 5.85938 45.6055V23.4375H19.1406V47.0703ZM19.1406 20.5078H4.39453C3.58682 20.5078 2.92969 19.8507 2.92969 19.043V16.1133C2.92969 15.3056 3.58682 14.6484 4.39453 14.6484H19.1406V20.5078ZM27.9297 47.0703H22.0703V14.6484C22.3772 14.6484 26.2461 14.6484 27.9297 14.6484V47.0703ZM44.1406 45.6055C44.1406 46.4132 43.4835 47.0703 42.6758 47.0703H30.8594V23.4375H44.1406V45.6055ZM47.0703 19.043C47.0703 19.8507 46.4132 20.5078 45.6055 20.5078H30.8594V14.6484H45.6055C46.4132 14.6484 47.0703 15.3056 47.0703 16.1133V19.043Z" fill="white"/>
</svg>
