<svg width="42" height="42" viewBox="0 0 42 42" fill="none" xmlns="http://www.w3.org/2000/svg">
<g clip-path="url(#clip0_6073_78822)">
<path d="M38.7059 18.5295H32.5886L28.5838 11.1875C28.0062 10.1285 26.898 9.4707 25.6919 9.4707H12.996C11.7899 9.4707 10.6817 10.1285 10.1041 11.1875L6.09939 18.5295H3.29412C1.47774 18.5295 0 20.0073 0 21.8237V28.4119C0 28.8666 0.368694 29.2354 0.823529 29.2354H4.20049C4.5831 31.1127 6.24672 32.5295 8.23529 32.5295C10.2238 32.5295 11.8875 31.1127 12.2701 29.2354H29.7299C30.1125 31.1127 31.7762 32.5295 33.7647 32.5295C35.7532 32.5295 37.417 31.1127 37.7995 29.2354H41.1765C41.6312 29.2354 42 28.8666 42 28.4119V21.8237C42 20.0073 40.5222 18.5295 38.7059 18.5295ZM8.23529 30.8825C6.87301 30.8825 5.7647 29.7742 5.7647 28.4119C5.7647 27.0496 6.87301 25.9413 8.23529 25.9413C9.59757 25.9413 10.7059 27.0496 10.7059 28.4119C10.7059 29.7742 9.59757 30.8825 8.23529 30.8825ZM33.7647 30.8825C32.4024 30.8825 31.2941 29.7742 31.2941 28.4119C31.2941 27.0496 32.4024 25.9413 33.7647 25.9413C35.127 25.9413 36.2353 27.0496 36.2353 28.4119C36.2353 29.7742 35.127 30.8825 33.7647 30.8825ZM37.7995 27.5884C37.4169 25.7111 35.7532 24.2942 33.7647 24.2942C31.7762 24.2942 30.1124 25.7111 29.7299 27.5884H12.2701C11.8875 25.7111 10.2239 24.2942 8.23529 24.2942C6.24672 24.2942 4.5831 25.7111 4.20049 27.5884H1.64706V24.2942H2.47059C2.92542 24.2942 3.29412 23.9255 3.29412 23.4707C3.29412 23.016 2.92542 22.6472 2.47059 22.6472H1.64706V21.8237C1.64706 20.9155 2.38593 20.1766 3.29412 20.1766H6.58823C6.88956 20.1766 7.16684 20.012 7.31121 19.7474L11.5501 11.9761C11.8389 11.4467 12.393 11.1178 12.996 11.1178H25.6919C26.295 11.1178 26.849 11.4467 27.1378 11.9761L31.3768 19.7475C31.5212 20.012 31.7984 20.1766 32.0998 20.1766H38.7059C39.6141 20.1766 40.3529 20.9155 40.3529 21.8237V22.6472H39.5294C39.0746 22.6472 38.7059 23.016 38.7059 23.4707C38.7059 23.9255 39.0746 24.2942 39.5294 24.2942H40.3529V27.5884H37.7995Z" fill="#D0D0D0"/>
<path d="M26.8701 15.0172C26.421 13.6701 25.1651 12.7649 23.745 12.7649H19.761C19.3062 12.7649 18.9375 13.1336 18.9375 13.5884V18.5296C18.9375 18.9844 19.3062 19.3531 19.761 19.3531H27.1728C27.7341 19.3531 28.1317 18.8023 27.9541 18.2692L26.8701 15.0172ZM20.5846 17.7061V14.4119H23.745C24.4551 14.4119 25.083 14.8646 25.3076 15.5381L26.0302 17.7061H20.5846Z" fill="#D0D0D0"/>
<path d="M16.4684 12.7649H14.955C13.5348 12.7649 12.2789 13.67 11.8298 15.0173L10.7459 18.2692C10.5684 18.8017 10.9652 19.3531 11.5272 19.3531H16.4684C16.9232 19.3531 17.2919 18.9844 17.2919 18.5296V13.5884C17.2919 13.1336 16.9232 12.7649 16.4684 12.7649ZM15.6448 17.7061H12.6698L13.3924 15.5381C13.6169 14.8645 14.2448 14.4119 14.955 14.4119H15.6448V17.7061Z" fill="#D0D0D0"/>
<path d="M21.4081 21H19.761C19.3062 21 18.9375 21.3688 18.9375 21.8235C18.9375 22.2783 19.3062 22.6471 19.761 22.6471H21.4081C21.8628 22.6471 22.2316 22.2783 22.2316 21.8235C22.2316 21.3688 21.8628 21 21.4081 21Z" fill="#D0D0D0"/>
</g>
<defs>
<clipPath id="clip0_6073_78822">
<rect width="42" height="42" fill="white"/>
</clipPath>
</defs>
</svg>
