<svg width="66" height="66" viewBox="0 0 66 66" fill="none" xmlns="http://www.w3.org/2000/svg">
<path d="M4.31653 24.5399C-0.205176 44.968 21.1251 62.071 40.2507 52.5632C40.3713 53.6615 40.5378 54.8026 40.6914 55.794C39.3048 55.3359 37.9317 56.0981 37.1093 57.3209C36.7314 57.8816 35.5818 59.5874 36.6051 60.5718C36.8863 60.8424 37.3217 60.9977 37.8674 61.0959C39.7031 61.7699 41.8372 61.6112 43.6616 61.5479C44.3627 61.555 45.0146 61.541 45.8686 61.456C48.4801 61.3341 54.9607 60.9312 54.9829 60.9289C56.2618 60.794 55.4918 60.3365 54.2434 60.1029C55.0875 58.6428 54.4719 56.0457 52.5498 55.035C51.1971 54.3234 49.4869 54.5521 48.3073 55.473C47.646 54.1699 46.2451 53.251 44.7765 53.2356C44.4427 51.2369 44.3521 49.1682 44.4322 47.7855C45.3158 49.1215 46.7384 50.1152 48.3091 50.4156C50.5641 50.8478 53.6509 49.7714 55.1447 51.3895C55.4086 51.674 55.7315 52.2358 56.0408 52.607C57.1495 53.937 58.6262 53.7198 58.5554 52.8118C58.5254 52.4393 58.2102 52.1664 57.8252 52.1894C57.2134 52.2503 56.7147 51.0884 56.1415 50.4686C55.2886 49.545 53.9607 49.048 52.1807 49.093C49.5265 49.1106 47.1027 49.9207 45.1046 46.2058C45.5308 45.9534 46.0817 45.6745 46.6388 45.4273C48.499 47.6019 51.9427 48.2362 55.082 46.74C57.5038 45.5869 60.2841 43.1986 62.1656 40.6558C62.4825 40.2289 62.1555 39.674 61.7825 39.5407C58.9521 38.5337 56.543 37.5731 53.4911 37.7875C54.4689 35.0915 54.9654 32.2499 54.9654 29.3244C54.9654 11.4362 36.5781 -0.616045 20.2217 6.43341C14.4696 8.5282 9.60489 12.8267 6.65616 18.2942C5.74162 19.99 4.31653 22.5618 4.31653 24.5399ZM13.3985 38.6233C15.5856 40.344 18.1213 38.2025 20.0071 38.6286C21.5231 38.965 22.2974 40.8801 22.2559 42.5099C22.1819 45.4529 20.2105 48.1543 17.4318 49.2195C9.36544 44.0935 5.29887 34.8471 6.79395 25.5655C9.37974 23.5729 12.5888 22.399 15.8486 22.262C16.6971 22.2311 18.1874 22.3061 18.7119 23.2314C19.1401 23.9898 18.8337 25.0723 17.7468 26.6377C13.2356 33.1302 12.7039 33.7037 12.3707 35.1314C12.0494 36.5096 12.4529 37.8808 13.3985 38.6233ZM41.6086 52.554C40.5632 43.8036 48.5853 38.4415 43.0416 30.067C42.8166 29.7268 42.5228 29.3037 42.8191 29.2079C44.3774 28.7109 47.2811 35.1677 45.0052 40.8306C43.1866 45.3612 42.4943 47.8181 43.4422 53.4752C42.842 53.707 42.3051 54.0878 41.8755 54.5692C41.7823 53.9164 41.6932 53.2497 41.6086 52.554ZM47.3379 56.8759C47.4088 57.5198 48.2569 57.7035 48.5908 57.1549C49.2468 56.0786 50.7998 55.6487 51.9185 56.2358C52.9224 56.7638 53.4503 58.0493 53.1722 59.1397C45.1943 59.8896 45.8296 60.6203 40.4864 59.9661C39.9669 59.9006 37.8956 59.8717 37.5543 59.6077C37.5534 59.6041 37.4351 59.2642 38.2341 58.0785C39.1699 56.6864 40.5699 56.8041 40.8855 57.6052C41.1656 58.3175 42.238 58.0844 42.1931 57.3156C42.1137 56.0001 43.2376 54.6995 44.5505 54.5874C45.8705 54.4717 47.1931 55.5657 47.3379 56.8759ZM60.5359 40.5337C58.8128 42.6454 56.5179 44.5548 54.4993 45.5163C52.5782 46.4297 49.8305 46.5654 48.0387 44.8935C49.3132 44.5204 50.9069 44.8981 53.6322 43.3028C54.4522 42.8158 55.0409 42.4374 55.8113 42.2539C56.175 42.1674 56.4002 41.8018 56.3137 41.4372C55.9565 39.9471 53.3209 42.0941 51.6889 42.7546L51.8726 41.9051C52.065 41.0298 50.7394 40.7412 50.5473 41.6173C50.2869 42.8969 50.2188 42.9476 50.2631 43.1812C49.3776 43.3544 48.6603 43.343 47.913 43.5288C48.2903 42.0787 49.5379 40.4211 50.8034 39.8223C53.9683 38.327 57.4982 39.4376 60.5359 40.5337ZM51.9495 38.0135C51.3397 38.153 50.7595 38.3433 50.2242 38.5968C48.3101 39.5013 46.6237 41.9574 46.4603 44.0275C45.9908 44.2224 45.5178 44.4448 45.0826 44.671C45.4149 43.6094 45.7941 42.5065 46.2643 41.3357C47.8411 37.4087 47.3459 32.5865 45.3708 29.3386C45.1209 28.9183 44.7015 28.5713 44.2812 28.2561C43.2946 27.5314 41.7891 27.7244 41.41 28.8883C41.0961 29.8025 41.7777 30.5574 42.0951 31.1053C43.4545 33.4505 44.1489 37.3123 42.5571 41.4161C42.238 41.0976 41.9022 40.7952 41.5368 40.5293C41.8643 38.3177 40.6949 35.3344 38.9087 33.92C35.2359 31.0112 30.7367 31.6549 26.4824 32.0888C26.0729 32.1365 25.6364 32.602 25.8485 33.0945C27.2135 36.2403 29.563 39.4436 31.8347 41.2553C34.9978 43.7753 39.1183 43.6338 41.0688 41.8933C41.6568 42.375 41.8108 42.6035 42.0123 42.767C41.0281 45.1623 40.2352 47.0425 40.1669 50.5723C37.0269 52.148 33.8108 52.8834 30.0503 52.8834C26.1273 52.8834 22.2935 51.9084 18.8765 50.0667C25.0552 46.7887 24.7803 38.3002 20.302 37.3042C18.0538 36.8044 15.6854 38.696 14.2364 37.5576C13.6298 37.0809 13.5256 36.1503 13.6916 35.4386C13.972 34.2369 14.6493 33.4721 18.8611 27.4111C19.7537 26.1256 20.8309 24.2247 19.8915 22.5639C19.231 21.3958 17.8201 20.8087 15.7921 20.9076C12.7514 21.0344 9.75344 21.9983 7.18856 23.6377C9.29565 15.1703 15.9942 8.5027 24.4782 6.43695C24.1275 8.34047 23.8053 10.2979 23.914 12.2982C24.2662 18.7532 29.1853 21.6604 32.903 20.1244C35.5956 19.013 36.7305 15.9583 38.9855 14.8905C41.21 13.8313 43.3434 15.2173 41.8444 18.8362C41.1777 20.4007 40.4229 21.9824 40.8158 23.6234C41.3435 25.8214 43.8305 27.4917 47.141 26.7269C49.252 26.2375 51.3789 24.3623 52.6071 22.533C54.1165 27.5366 53.9418 33.0212 51.9495 38.0135ZM33.2589 35.9763C32.5253 35.4533 31.7416 36.5568 32.4678 37.0782C33.5099 37.8262 34.5348 38.512 35.4327 39.1073C35.1964 39.2147 34.9657 39.3151 34.7925 39.3615C34.4305 39.4568 34.2151 39.8276 34.3113 40.1905C34.6044 41.2983 35.9415 40.2653 36.9753 39.9248C38.1054 40.3918 38.8993 40.5737 39.8607 41.0853C37.5117 42.524 34.535 41.6732 32.6805 40.194C30.7556 38.6602 28.7714 36.033 27.4629 33.3396C30.9676 32.9218 35.0266 32.5755 38.0664 34.9831C39.3192 35.9757 40.249 38.0932 40.2472 39.7653C37.3041 38.3204 38.4596 39.7081 33.2589 35.9763ZM52.0246 20.8455C51.1981 22.6345 48.8861 24.9301 46.8355 25.406C44.2717 25.9956 42.492 24.7945 42.1348 23.3073C41.838 22.0683 42.5358 20.6744 43.0981 19.3554C45.0847 14.5535 41.6985 12.0984 38.4045 13.665C35.8203 14.8883 34.6801 17.9236 32.3857 18.8707C30.7902 19.5302 28.7145 18.996 27.3353 17.5736C24.4319 14.5793 25.2124 9.88697 25.9109 6.13703C37.1306 4.13917 47.9883 10.4215 52.0246 20.8455Z" fill="white"/>
</svg>
