<svg width="24" height="28" viewBox="0 0 24 28" fill="none" xmlns="http://www.w3.org/2000/svg">
<path d="M6.07969 27.125H17.9203C19.8347 27.125 21.4359 25.6906 21.6469 23.7884L23.2444 9.41562C23.2744 9.15031 23.1891 8.88594 23.0109 8.68719C22.8338 8.48844 22.5797 8.375 22.3125 8.375H17.625V6.5C17.625 3.39781 15.1022 0.875 12 0.875C8.89782 0.875 6.375 3.39781 6.375 6.5V8.375H1.6875C1.42031 8.375 1.16625 8.48844 0.989064 8.68719C0.810939 8.88594 0.726564 9.15125 0.755626 9.41562L2.35219 23.7884C2.56406 25.6906 4.16625 27.125 6.07969 27.125ZM8.25 6.5C8.25 4.43187 9.93188 2.75 12 2.75C14.0681 2.75 15.75 4.43187 15.75 6.5V8.375H8.25V6.5ZM6.375 10.25V12.125C5.8575 12.125 5.4375 12.545 5.4375 13.0625C5.4375 13.58 5.8575 14 6.375 14H8.25C8.7675 14 9.1875 13.58 9.1875 13.0625C9.1875 12.545 8.7675 12.125 8.25 12.125V10.25H15.75V12.125C15.2325 12.125 14.8125 12.545 14.8125 13.0625C14.8125 13.58 15.2325 14 15.75 14H17.625C18.1425 14 18.5625 13.58 18.5625 13.0625C18.5625 12.545 18.1425 12.125 17.625 12.125V10.25H21.2653L19.7831 23.5822C19.6781 24.5328 18.8766 25.25 17.9203 25.25H6.07969C5.1225 25.25 4.32188 24.5328 4.21594 23.5822L2.73469 10.25H6.375Z" fill="#4A4548"/>
</svg>
