<svg width="21" height="19" viewBox="0 0 21 19" fill="none" xmlns="http://www.w3.org/2000/svg">
<path d="M5.90949 7.5313C5.18352 7.5313 4.59699 8.11372 4.59699 8.80689C4.59699 9.56978 5.18352 10.1563 5.90949 10.1563C6.63547 10.1563 7.18508 9.57183 7.18508 8.8438C7.18508 8.11577 6.63957 7.5313 5.90949 7.5313ZM10.5032 7.49439C9.77522 7.49439 9.22766 8.07886 9.22766 8.80689C9.22766 9.53491 9.81213 10.0825 10.5032 10.0825C11.1944 10.0825 11.7788 9.498 11.7788 8.80689C11.7788 8.11577 11.2333 7.49439 10.5032 7.49439ZM15.097 7.5313C14.369 7.5313 13.8214 8.11577 13.8214 8.8438C13.8214 9.57183 14.4059 10.1563 15.097 10.1563C15.825 10.1563 16.4091 9.57183 16.4091 8.8438C16.4095 8.11372 15.8271 7.5313 15.097 7.5313ZM10.5032 0.275635C4.70364 0.275635 0.0401586 4.09501 0.0401586 8.80689C0.0401586 10.76 0.85678 12.5496 2.2103 13.9872C1.60039 15.6073 0.328909 16.9764 0.308401 16.9916C0.0367133 17.2787 -0.0350231 17.6991 0.118744 18.058C0.241873 18.4497 0.593049 18.6875 0.987619 18.6875C3.50967 18.6875 5.46242 17.6314 6.69289 16.7906C7.87701 17.1597 9.16039 17.375 10.5032 17.375C16.3029 17.375 20.9663 13.5553 20.9663 8.88071C20.9663 4.20616 16.3029 0.275635 10.5032 0.275635ZM10.5032 15.4063C9.40608 15.4063 8.32449 15.2371 7.28926 14.9092L6.35615 14.617L5.55676 15.1807C4.97229 15.5958 4.16756 16.0576 3.19877 16.3702C3.50122 15.8731 3.78817 15.314 4.01375 14.7193L4.44934 13.5709L3.6036 12.6738C2.86654 11.8831 1.97446 10.5747 1.97446 8.8438C1.97446 5.22417 5.79875 2.2813 10.4688 2.2813C15.1388 2.2813 18.9631 5.22417 18.9631 8.8438C18.9631 12.4634 15.2118 15.4063 10.5032 15.4063Z" fill="#F08F8E"/>
</svg>
