<svg width="42" height="42" viewBox="0 0 42 42" fill="none" xmlns="http://www.w3.org/2000/svg">
<path d="M41.1797 34.5352H40.3594V13.207C40.3594 11.3977 38.8874 9.92578 37.0781 9.92578H31.2539V1.72266C31.2539 1.2696 30.8866 0.902344 30.4336 0.902344H11.5664C11.1133 0.902344 10.7461 1.2696 10.7461 1.72266V9.92578H4.92188C3.11259 9.92578 1.64062 11.3977 1.64062 13.207V34.5352H0.820312C0.367254 34.5352 0 34.9025 0 35.3555V37.8164C0 39.6257 1.47197 41.0977 3.28125 41.0977H38.7188C40.528 41.0977 42 39.6257 42 37.8164V35.3555C42 34.9025 41.6327 34.5352 41.1797 34.5352ZM12.3867 2.54297H29.6133V27.9727H12.3867C12.3867 27.1576 12.3867 3.33227 12.3867 2.54297ZM32.0742 29.6133C32.5272 29.6133 32.8945 29.2459 32.8945 28.793C32.8945 28.34 32.5272 27.9727 32.0742 27.9727H31.2539V14.8477H35.4375V31.2539H6.5625V14.8477H10.7461V27.9727H9.92578C9.47281 27.9727 9.10547 28.34 9.10547 28.793C9.10547 29.2459 9.47281 29.6133 9.92578 29.6133H32.0742ZM3.28125 13.207C3.28125 12.3024 4.01723 11.5664 4.92188 11.5664H10.7461V13.207H5.74219C5.28921 13.207 4.92188 13.5743 4.92188 14.0273V32.0742C4.92188 32.5272 5.28921 32.8945 5.74219 32.8945H36.2578C36.7108 32.8945 37.0781 32.5272 37.0781 32.0742V14.0273C37.0781 13.5743 36.7108 13.207 36.2578 13.207H31.2539V11.5664H37.0781C37.9828 11.5664 38.7188 12.3024 38.7188 13.207V34.5352H3.28125V13.207ZM40.3594 37.8164C40.3594 38.721 39.6234 39.457 38.7188 39.457H3.28125C2.37661 39.457 1.64062 38.721 1.64062 37.8164V36.1758H40.3594V37.8164Z" fill="#F08F8E"/>
<path d="M18.3088 15.8396C19.0574 16.3294 19.5984 16.5104 20.2887 16.5679V16.9929C20.2887 17.4458 20.656 17.8132 21.109 17.8132C21.562 17.8132 21.9293 17.4458 21.9293 16.9929V16.471C23.2227 16.1102 24.0511 14.9917 24.2367 13.888C24.48 12.4404 23.6942 11.1322 22.281 10.6326C21.4656 10.3444 20.563 9.99567 20.0518 9.59487C19.64 9.27199 19.8076 8.19049 20.574 7.95974C21.5991 7.65081 22.2623 8.2119 22.2901 8.23586L22.2811 8.22773L22.2819 8.22691C22.4322 8.36538 22.6319 8.4452 22.8374 8.4452C23.2892 8.4452 23.6577 8.07696 23.6577 7.62489C23.6577 7.40824 23.5699 7.1975 23.4173 7.04493C23.4093 7.03697 23.4007 7.03008 23.3925 7.02253L23.3933 7.02163C23.3587 6.9898 22.8189 6.50418 21.9292 6.30746V5.82422C21.9292 5.37124 21.5619 5.00391 21.1089 5.00391C20.6559 5.00391 20.2886 5.37124 20.2886 5.82422V6.33716C20.2266 6.35258 20.1641 6.36964 20.1007 6.38868C19.147 6.67603 18.4348 7.48995 18.2422 8.51279C18.0652 9.45213 18.3706 10.3614 19.0393 10.8858C19.6017 11.327 20.3825 11.7018 21.7342 12.1795C22.6934 12.5185 22.6723 13.2969 22.6187 13.6159C22.5112 14.2546 21.9742 14.9447 21.0484 14.9509C20.165 14.9563 19.8888 14.9128 19.2069 14.4667C18.8279 14.2185 18.3195 14.325 18.0714 14.704C17.8235 15.0832 17.9297 15.5915 18.3088 15.8396Z" fill="#F08F8E"/>
<path d="M26.3281 19.7695H15.6641C15.211 19.7695 14.8438 20.1368 14.8438 20.5898C14.8438 21.0428 15.211 21.4102 15.6641 21.4102H26.3281C26.7811 21.4102 27.1484 21.0428 27.1484 20.5898C27.1484 20.1368 26.7811 19.7695 26.3281 19.7695Z" fill="#F08F8E"/>
<path d="M26.3281 23.8711H15.6641C15.211 23.8711 14.8438 24.2384 14.8438 24.6914C14.8438 25.1444 15.211 25.5117 15.6641 25.5117H26.3281C26.7811 25.5117 27.1484 25.1444 27.1484 24.6914C27.1484 24.2384 26.7811 23.8711 26.3281 23.8711Z" fill="#F08F8E"/>
</svg>
