<svg width="43" height="43" viewBox="0 0 43 43" fill="none" xmlns="http://www.w3.org/2000/svg">
<path d="M31.004 14.6779C31.6601 15.334 31.6601 16.3976 31.004 17.0534L19.7357 28.3221C19.0795 28.9779 18.0163 28.9779 17.3602 28.3221L11.996 22.9576C11.3399 22.3018 11.3399 21.2382 11.996 20.5824C12.6518 19.9263 13.7154 19.9263 14.3712 20.5824L18.5478 24.759L28.6285 14.6779C29.2846 14.0221 30.3482 14.0221 31.004 14.6779ZM43 21.5C43 33.3841 33.3825 43 21.5 43C9.61588 43 0 33.3825 0 21.5C0 9.61588 9.61752 0 21.5 0C33.3841 0 43 9.61752 43 21.5ZM39.6406 21.5C39.6406 11.4727 31.526 3.35938 21.5 3.35938C11.4727 3.35938 3.35938 11.474 3.35938 21.5C3.35938 31.5273 11.474 39.6406 21.5 39.6406C31.5273 39.6406 39.6406 31.526 39.6406 21.5Z" fill="#F08F8E"/>
</svg>
