<svg width="14" height="14" viewBox="0 0 14 14" fill="none" xmlns="http://www.w3.org/2000/svg">
<path d="M8.28263 7.01144L13.734 1.55995C14.0887 1.20535 14.0887 0.632019 13.734 0.277422C13.3794 -0.0771746 12.806 -0.0771746 12.4514 0.277422L6.99994 5.72892L1.5486 0.277422C1.19384 -0.0771746 0.62067 -0.0771746 0.266073 0.277422C-0.0886909 0.632019 -0.0886909 1.20535 0.266073 1.55995L5.71741 7.01144L0.266073 12.4629C-0.0886909 12.8175 -0.0886909 13.3909 0.266073 13.7455C0.44279 13.9223 0.675147 14.0112 0.907338 14.0112C1.13953 14.0112 1.37172 13.9223 1.5486 13.7455L6.99994 8.29397L12.4514 13.7455C12.6283 13.9223 12.8605 14.0112 13.0927 14.0112C13.3249 14.0112 13.5571 13.9223 13.734 13.7455C14.0887 13.3909 14.0887 12.8175 13.734 12.4629L8.28263 7.01144Z" fill="#B4B4B4"/>
</svg>
