<svg width="42" height="42" viewBox="0 0 42 42" fill="none" xmlns="http://www.w3.org/2000/svg">
<path d="M35.2002 13.3833C35.1707 13.3608 35.1357 13.3538 35.1046 13.3359C35.1497 12.9144 35.1746 12.4867 35.1746 12.0535C35.1746 5.40699 29.7668 0 23.1195 0H8.73531C8.34804 0 8.0191 0.285397 7.96544 0.668777L2.93717 36.4445C2.90606 36.6677 2.97294 36.8932 3.11991 37.0635C3.26767 37.2338 3.4823 37.331 3.70704 37.331H11.737C11.4073 39.4851 11.0869 41.0482 11.0838 41.066C11.0364 41.2947 11.0955 41.5334 11.2424 41.7138C11.3902 41.895 11.6118 42 11.8451 42H19.8705C20.2569 42 20.5851 41.7162 20.6403 41.3336L22.1007 31.193H28.8414C34.477 31.193 39.0628 26.7153 39.0628 21.2119C39.0636 18.1441 37.656 15.2909 35.2002 13.3833ZM9.41109 1.5553H23.1202C28.9098 1.5553 33.6201 6.26473 33.6201 12.0559C33.6201 17.8431 28.9106 22.5518 23.1202 22.5518H14.5086C14.1213 22.5518 13.7924 22.8372 13.7387 23.2214L11.9742 35.7757H4.60211L9.41109 1.5553ZM28.843 29.637H21.4289C21.0424 29.637 20.7142 29.9208 20.659 30.3034L19.1986 40.4439H12.7884C12.9432 39.6142 13.1741 38.2976 13.3942 36.7727C13.3958 36.7633 13.3919 36.7548 13.3926 36.7454C13.4004 36.7167 13.4168 36.691 13.4206 36.6607L15.1843 24.1071H23.1202C28.7232 24.1071 33.4311 20.2608 34.7772 15.0739C36.516 16.665 37.5083 18.8611 37.5083 21.2119C37.5083 25.8576 33.6208 29.637 28.843 29.637Z" fill="#F08F8E"/>
</svg>
