<svg width="66" height="66" viewBox="0 0 66 66" fill="none" xmlns="http://www.w3.org/2000/svg">
<path d="M64.5909 32.4432C62.6501 30.0613 59.6478 21.8884 59.0737 18.6955C59.3652 18.5409 59.6434 18.392 59.8977 18.255C60.2517 18.0644 60.3839 17.6227 60.1929 17.2683C60.0019 16.9157 59.5612 16.7839 59.2067 16.9735C55.84 18.7886 53.0514 20.0976 52.4244 20.1563C52.0244 20.1942 51.7301 20.5497 51.7681 20.9497C51.7967 21.2572 51.7715 21.3753 51.7974 21.5431C44.7767 24.8287 40.6385 20.5492 36.3696 20.7665C30.0362 17.6609 24.1923 21.7957 18.433 20.7535C16.1673 20.3443 14.0569 18.9298 11.8796 17.7024C12.0885 17.3208 11.9038 16.5582 11.2596 16.5093C10.0756 15.7843 6.03183 13.2864 5.49403 12.9641C5.14854 12.7546 4.70211 12.8684 4.495 13.2124C4.29323 13.5486 4.39838 13.9784 4.72243 14.1915C4.61858 17.126 3.00565 25.2669 1.3714 27.7334C1.14913 28.0679 1.24059 28.5201 1.57613 28.7419C1.90953 28.9641 2.36271 28.8726 2.58463 28.5371C4.34714 25.8779 5.80883 18.4988 6.12197 15.0558C7.68072 16.0148 9.51617 17.1483 10.3794 17.6774C9.37846 23.1146 8.2746 29.729 6.50312 34.9058L4.97319 34.0052C4.26192 33.5888 3.4971 34.4981 4.08092 35.1225C4.1523 35.4779 4.21184 35.8517 4.30591 36.1714C5.24101 36.8603 6.49269 37.6279 7.56399 38.0767C7.79734 37.9476 7.97215 37.4806 8.03074 37.2205C8.96016 37.8193 9.88774 38.6539 10.8172 39.2526C9.35863 40.7944 11.4934 45.6382 14.5562 44.8398C14.1315 47.6337 16.7263 49.498 19.117 48.8804C19.0831 51.4445 21.6126 53.3933 24.1116 52.5424C25.0071 55.8361 29.1945 56.7338 30.9201 54.4707C32.463 54.7744 34.1404 55.1198 36.6553 53.9721C38.7764 54.8931 41.1102 53.3543 41.4199 51.4228C43.6015 52.485 46.0631 50.7674 46.2915 48.8503C48.6576 49.5054 50.7128 47.3416 50.5373 45.2222C53.4159 43.5894 56.3738 41.8909 59.254 40.2568C59.2933 40.2345 59.3343 40.2605 59.343 40.3048C59.3914 40.5524 59.685 40.8966 59.8948 40.9434C60.7997 40.7212 63.1164 39.7608 63.9093 39.2715C64.1485 38.6802 64.1342 38.6843 63.9901 37.5361C64.1576 36.9367 63.6047 36.4986 63.0971 36.6468C62.1363 36.9262 61.2228 37.3323 60.3672 37.8421C56.7793 33.0914 54.1365 27.0072 53.2581 21.435C54.3446 21.079 56.1073 20.2301 57.7284 19.3976C58.5095 23.046 61.4506 30.8936 63.462 33.3626C63.7173 33.675 64.1767 33.7209 64.4862 33.4668C64.798 33.2138 64.8449 32.755 64.5909 32.4432ZM16.2113 41.732C16.2063 41.7415 16.2072 41.752 16.2026 41.7616C15.9065 42.0633 15.6205 42.3406 15.347 42.5708C14.4906 42.8532 13.4086 42.4688 12.9758 41.6761C12.5226 40.8442 12.8268 39.6552 13.6052 39.1205C13.6169 39.1194 13.6276 39.1243 13.6393 39.1226C14.9402 38.9539 15.698 39.8847 15.9013 40.1756C16.2866 40.7273 16.4112 41.3529 16.2113 41.732ZM19.9822 46.7351C17.85 47.6288 15.7712 45.5534 16.529 43.4667C16.8427 43.1811 17.1549 42.8749 17.4785 42.5433C19.0396 40.9415 20.1704 39.9463 21.6201 40.6771C22.4371 41.0889 22.8746 41.7519 23.1025 42.8119C22.5077 43.4821 20.5519 45.6548 19.9822 46.7351ZM24.2181 50.3735C23.1362 51.1794 21.5977 50.6259 21.2419 49.3602C21.1031 48.8651 21.1035 48.0813 21.173 47.5175C25.0811 42.6922 24.4653 43.4594 24.5188 43.3727C25.1486 43.3331 25.6541 43.392 26.0726 43.5651C26.7535 43.846 27.4078 44.6732 27.3721 46.303C27.3048 46.4002 25.1326 49.6831 24.2181 50.3735ZM29.3938 50.0635C28.9647 51.1377 28.7021 52.5406 29.0775 53.3398C28.6647 53.4894 28.2435 53.512 27.8033 53.3743C26.7694 53.0503 25.8546 52.1809 25.4879 51.2193C26.6188 49.9196 27.564 48.6747 28.3658 47.4352C29.0238 47.3988 29.7123 48.0184 29.7469 48.6825C29.7687 49.0872 29.6038 49.5384 29.3938 50.0635ZM30.4993 51.2691C30.7057 50.6131 31.0319 50.0476 31.1586 49.2461C31.5084 49.5161 34.5269 51.9021 35.2031 52.4426C33.2919 53.3659 31.5295 52.7481 30.4993 51.2691ZM46.4478 46.4456C44.6997 46.2116 39.0871 40.1655 37.9599 38.8003C37.7045 38.4904 37.2457 38.4468 36.9353 38.7027C36.6254 38.9586 36.5813 39.4174 36.8377 39.7273C38.4067 41.6274 43.2985 46.5137 44.6331 47.3023C44.2111 48.9286 42.5156 49.8002 40.9812 49.2796C39.8514 48.895 39.3555 48.2379 34.5027 43.312C34.2216 43.0258 33.76 43.0211 33.4733 43.3045C33.1871 43.586 33.1833 44.0476 33.4657 44.3338C38.0093 48.9402 38.5275 49.576 39.5871 50.2161C39.2922 51.5355 38.3202 52.0014 37.5727 51.9933C36.219 51.9695 30.6062 46.3126 28.8335 46.0154C28.8759 44.5753 28.1138 42.833 26.6285 42.2192C26.0071 41.9632 25.2757 41.8712 24.4185 41.9241C24.1446 40.9933 23.3698 39.9289 22.2755 39.3766C20.4057 38.4334 18.8586 39.2928 17.6096 40.3877C16.9138 38.1693 14.3458 37.177 12.9957 37.7944C11.459 36.5921 9.83158 35.5138 8.15248 34.5723C9.66676 29.8528 10.6843 24.1357 11.5793 19.2077C13.7007 20.4292 15.795 21.7573 18.1747 22.1866C23.3913 23.1266 28.8811 20.1425 33.7481 21.3498C28.5878 23.1518 23.4393 26.8627 22.4575 32.2233C22.1153 34.0943 22.7941 35.908 24.7147 36.1539C27.7458 37.0366 30.6507 32.8249 32.1035 31.7694C33.0974 31.0474 34.2534 30.7232 35.4608 30.9487C38.8802 33.2588 47.0971 41.9417 47.1857 42.0391C49.3085 44.3737 48.1689 46.6722 46.4478 46.4456ZM58.61 37.8928C55.3025 38.9872 52.143 40.6595 49.3805 42.7783C48.8783 41.6199 48.1557 40.895 47.1246 39.8932C43.793 36.645 39.2837 31.3432 34.8919 28.8862C35.0127 28.8738 35.1311 28.8647 35.2377 28.8698C35.6372 28.8461 35.9737 28.5618 35.9837 28.1599C35.9936 27.758 35.6756 27.4244 35.2737 27.4139C33.8458 27.4272 31.7065 28.3011 30.6715 29.3864C28.994 31.1478 28.0073 33.8263 25.8911 34.6061C24.316 35.1882 23.6051 34.0408 23.8897 32.4849C24.9366 26.773 32.1499 22.952 35.8382 22.2861C39.7413 21.5762 44.254 26.4214 52.0775 23.0154C53.1124 28.1119 55.4699 33.4811 58.61 37.8928Z" fill="white"/>
<path d="M55.2139 23.7051C55.1054 23.9885 55.1182 24.3022 55.2471 24.561C55.584 25.2466 56.592 25.3407 57.0191 24.6946C57.3124 24.2507 57.171 23.6571 56.7404 23.3515C56.3687 22.742 55.4889 22.9832 55.2139 23.7051Z" fill="white"/>
<path d="M6.8887 20.0683C7.4791 20.4944 8.35767 20.1575 8.50808 19.4408C8.5787 19.1062 8.47064 18.7555 8.21947 18.5034C7.57553 17.8582 6.50842 18.2753 6.46975 19.1839C6.45459 19.5394 6.61193 19.8711 6.8887 20.0683Z" fill="white"/>
<path d="M28.2335 10.3453C27.869 10.514 27.7112 10.9472 27.8804 11.3121L30.6225 17.2067C30.7929 17.5724 31.2268 17.7287 31.5898 17.5593C31.9542 17.3896 32.112 16.9574 31.9428 16.5925L29.2007 10.6979C29.0311 10.333 28.5989 10.1747 28.2335 10.3453Z" fill="white"/>
<path d="M36.085 11.275L34.5528 16.5469C34.4172 17.0126 34.7681 17.4777 35.2523 17.4777C35.5675 17.4777 35.8585 17.2711 35.9509 16.9526L37.4831 11.6807C37.5954 11.2949 37.3731 10.8911 36.9874 10.7793C36.6025 10.6674 36.1973 10.8883 36.085 11.275Z" fill="white"/>
<path d="M42.7779 15.4503L39.3822 17.5668C39.041 17.7791 38.9367 18.2284 39.1491 18.5696C39.3653 18.9162 39.8181 19.012 40.1519 18.8028L43.5475 16.6862C43.8887 16.473 43.993 16.0246 43.7807 15.6834C43.5674 15.3412 43.1177 15.237 42.7779 15.4503Z" fill="white"/>
</svg>
