<svg width="8" height="17" viewBox="0 0 8 17" fill="none" xmlns="http://www.w3.org/2000/svg">
<path d="M7.99674 6.89171L7.7353 9.25829C7.72401 9.36822 7.67536 9.46974 7.59872 9.54327C7.52209 9.6168 7.4229 9.65712 7.32031 9.65645H5.0379V16.6801C5.03846 16.764 5.00823 16.8447 4.95381 16.9046C4.89939 16.9645 4.8252 16.9988 4.74741 17H2.42143C2.38274 16.9994 2.34453 16.9906 2.30899 16.9741C2.27345 16.9576 2.24127 16.9337 2.2143 16.9038C2.18732 16.8739 2.16608 16.8386 2.15177 16.7998C2.13747 16.761 2.13039 16.7196 2.13094 16.6779L2.14339 9.65645H0.414984C0.304923 9.65645 0.19937 9.60931 0.121546 9.52542C0.0437211 9.44152 0 9.32773 0 9.20908V6.8425C0 6.72385 0.0437211 6.61006 0.121546 6.52616C0.19937 6.44227 0.304923 6.39513 0.414984 6.39513H2.13302V4.10013C2.13302 1.445 3.59791 0 5.74338 0H7.50083C7.61089 0 7.71644 0.047133 7.79427 0.131031C7.87209 0.214929 7.91582 0.328719 7.91582 0.447368V2.44039C7.91582 2.55904 7.87209 2.67283 7.79427 2.75673C7.71644 2.84063 7.61089 2.88776 7.50083 2.88776H6.42395C5.25784 2.90789 5.0379 3.5096 5.0379 4.40882V6.38842H7.59213C7.6504 6.3895 7.70781 6.40379 7.76062 6.43038C7.81343 6.45697 7.86044 6.49525 7.89861 6.54273C7.93679 6.59021 7.96525 6.64582 7.98216 6.70595C7.99906 6.76608 8.00403 6.82937 7.99674 6.89171Z" fill="#4A4548"/>
</svg>
