<svg width="60" height="60" viewBox="0 0 60 60" fill="none" xmlns="http://www.w3.org/2000/svg">
<path d="M10.8081 43.9922C12.4099 43.9922 12.8155 42.1674 11.6401 41.421C11.4858 41.3237 11.3066 41.2961 11.139 41.334C10.2792 41.0061 9.4357 41.4004 9.18343 42.1422C8.84481 43.1395 9.71598 43.9922 10.8081 43.9922Z" fill="white"/>
<path d="M47.2309 8.27592C43.8091 8.15293 40.3136 9.72048 37.9692 12.3291C36.916 12.9117 36.6216 12.6752 35.9166 12.3494C35.1615 12.0004 34.5262 11.4432 33.8412 10.9713C31.6261 9.44559 28.8082 8.82184 26.1561 9.27024C25.3877 9.40008 24.6601 9.69111 23.9578 10.0416C21.2991 10.9369 18.9902 12.847 17.7426 15.3995C14.5034 21.9775 18.3704 29.4434 29.1999 37.5929C28.6124 38.0548 28.7187 37.9775 28.645 38.0365C28.554 38.0882 28.4494 38.1537 28.3912 38.1925C26.9426 39.0856 25.2067 38.9912 23.6145 39.1808C21.1624 39.1808 17.7328 41.2425 14.8292 41.9097C14.6836 41.4526 14.5396 40.9953 14.3705 40.5423C13.9185 39.3316 12.5231 38.5596 11.0487 38.6845C9.56967 38.8189 8.26855 39.0085 7.18155 39.2489C5.30861 39.6606 1.02005 39.3123 1.46133 41.3393C2.41033 45.6823 2.32122 48.9598 3.11531 52.1671C3.20277 52.5213 3.56166 52.7427 3.91667 52.6496C4.27168 52.5626 4.48796 52.2033 4.40007 51.8483C3.63332 48.7497 3.7375 45.6428 2.78831 41.2127C3.22518 40.9912 4.63057 40.8663 5.41426 40.7965C8.33118 40.5381 7.73493 40.3146 11.1685 40.0029C12.0241 39.9245 12.891 40.3648 13.1305 41.0059C14.8379 45.5788 15.2899 50.3895 14.445 54.9546C11.8825 55.0011 7.68002 55.1805 5.30396 55.2088C4.91292 55.2134 4.55649 55.5711 4.68507 56.0412L4.60536 56.2844C4.87975 56.6599 6.37357 57.5976 6.8386 57.6012C7.86685 57.6091 9.52659 57.6587 9.93674 57.6399C12.1958 57.5366 13.755 57.405 15.6938 57.3005C16.3372 57.2658 16.83 56.8597 16.8358 56.3368C16.8492 55.1266 16.8448 53.8868 16.8647 52.6876C32.127 58.4131 46.8441 54.8512 55.5044 45.6658C56.2111 44.9162 56.8893 44.1107 57.2293 43.1142C57.4468 42.4767 57.5918 41.4985 57.2827 40.7437C57.6493 39.2016 56.3224 38.0973 54.9389 38.3597C53.9782 38.5394 53.1558 39.2304 52.5197 39.5083C47.2299 42.3364 47.9945 42.2925 40.1427 44.4991C39.9553 44.5263 33.1302 45.9265 30.0937 45.5931C31.8573 44.5938 33.9594 43.331 35.4064 41.9161C36.0537 42.3253 36.3499 42.4822 37.0739 42.9138C36.9264 43.0932 37.8295 43.5121 38.5338 43.7906C38.8355 43.9099 39.1765 43.88 39.4538 43.7119C46.4699 39.4613 55.65 30.5755 57.9319 22.8752C58.9369 19.4839 58.8334 15.6426 57.0231 12.6038C55.2128 9.56493 50.8501 8.02533 47.2309 8.27592ZM53.6363 10.4418C52.3819 9.49384 50.8864 8.84015 49.2275 8.51266C50.8304 8.64655 52.3911 9.3592 53.6363 10.4418ZM26.4977 46.0242C26.1728 46.1914 26.0444 46.5895 26.2116 46.9152C26.3791 47.2416 26.7797 47.3677 27.1026 47.2013C27.5736 46.9595 28.0118 46.7276 28.4435 46.4974C30.8341 47.7022 37.8109 46.2328 40.3848 45.8002C48.146 43.6273 47.7317 43.6007 53.0902 40.7008C53.7241 40.4324 54.5193 39.7842 55.1896 39.6591C55.6841 39.5687 56.0105 39.8997 56.0285 40.1916C56.0978 41.2963 53.695 43.3068 52.9734 43.9821C48.4214 48.1319 42.2266 51.2448 35.4367 51.9646C35.4142 51.9663 35.3852 51.9715 35.3617 51.9758V51.9767C35.3298 51.9836 35.2988 51.993 35.2682 52.0042L35.2622 51.981C31.292 52.4023 27.966 51.9266 27.6717 51.956V51.9508C22.4334 51.4768 17.2198 50.402 16.3698 50.2672C16.3112 50.2284 16.2474 50.1978 16.178 50.1808C16.1582 47.8466 15.8225 45.4968 15.1998 43.1815C18.409 42.4211 20.4563 40.8595 23.6839 40.5009C26.1822 40.2346 27.7606 40.3918 29.7716 38.8362C31.9087 37.232 33.9658 34.4076 37.0924 34.8242C37.6115 34.8997 38.026 35.1015 38.3631 35.4336C38.9314 36.163 37.9055 37.3105 37.3134 37.9435C32.1155 43.4927 36.6834 38.6717 34.7357 40.7224C32.9332 42.6206 29.0994 44.6886 26.4977 46.0242ZM36.3388 40.9421C36.3388 40.942 36.3388 40.942 36.3388 40.942C38.5458 38.567 39.8428 37.8706 39.9208 36.327C39.9689 35.7114 39.7267 34.9356 39.3723 34.5657C38.1894 33.3245 36.2871 33.2462 34.6508 33.7583C32.8616 34.3227 31.6597 35.4618 30.2288 36.7219C19.7889 28.935 15.9872 21.9597 18.9309 15.982C20.4664 12.8395 23.9768 10.7232 27.4826 10.8016C29.9607 10.862 32.3889 11.9882 34.1424 13.889C35.3646 15.228 37.4 15.1219 38.4771 13.7503C40.53 11.1196 43.797 9.54102 46.9844 9.58324C52.9673 9.69629 56.5061 14.1058 56.0168 18.7049C56.0164 18.7058 56.0164 18.7058 56.0164 18.7066C55.6541 22.2257 54.2758 25.3312 51.5469 28.7779C47.7166 33.6273 42.7016 38.0396 37.6374 41.7055C37.1917 41.4417 36.8094 41.2327 36.3388 40.9421Z" fill="white"/>
<path d="M5.85708 16.2137H5.86053L11.3464 16.1844C11.7117 16.1827 12.0064 15.8845 12.0047 15.5192C12.003 15.1547 11.707 14.8608 11.3429 14.8608C11.3416 14.8608 11.3408 14.8608 11.3395 14.8608L5.85364 14.8901C5.48829 14.8919 5.1936 15.19 5.19532 15.5554C5.19704 15.9198 5.49303 16.2137 5.85708 16.2137Z" fill="white"/>
<path d="M11.9787 11.9683C12.2372 12.2268 12.6559 12.2268 12.9144 11.9683C13.1729 11.7098 13.1729 11.2911 12.9144 11.0326L9.3484 7.46609C9.0899 7.20759 8.67113 7.20759 8.41263 7.46609C8.15412 7.7246 8.15412 8.14337 8.41263 8.40187L11.9787 11.9683Z" fill="white"/>
<path d="M15.918 7.99856C16.0886 8.32481 16.4916 8.44529 16.8115 8.27689C17.1351 8.10714 17.2596 7.70732 17.0899 7.38333L14.6384 2.71048C14.4691 2.38735 14.0675 2.26155 13.7453 2.43216C13.4213 2.60191 13.2968 3.00172 13.4665 3.32571L15.918 7.99856Z" fill="white"/>
<path d="M25.6094 12.7187C22.9249 13.6347 20.9706 16.4644 20.8573 19.6009C20.7617 22.2522 21.8637 25.0208 23.9606 27.3982C24.0916 27.5464 24.2738 27.6222 24.4574 27.6222C25.0215 27.6222 25.3309 26.9508 24.9533 26.5227C23.0813 24.4004 22.0964 21.9593 22.18 19.6491C22.2739 17.0486 23.8598 14.7135 26.0368 13.9716C26.3828 13.8535 26.5676 13.4778 26.4496 13.1314C26.3315 12.7859 25.9545 12.6006 25.6094 12.7187Z" fill="white"/>
</svg>
