<svg width="42" height="42" viewBox="0 0 42 42" fill="none" xmlns="http://www.w3.org/2000/svg">
<g clip-path="url(#clip0_6065_78792)">
<path d="M41.2536 7.94313C40.7094 7.29984 39.9473 6.90691 39.1076 6.83678L9.53077 4.36715C8.69093 4.29702 7.8744 4.55812 7.23103 5.10223C6.59028 5.64421 6.19793 6.40242 6.12558 7.23807L5.53053 12.8208H3.1545C1.41512 12.8208 0 14.2359 0 15.9753V34.4898C0 36.2292 1.41512 37.6443 3.1545 37.6443H32.8344C34.5738 37.6443 35.9889 36.2292 35.9889 34.4898V31.4864L37.0421 31.5744C37.131 31.5817 37.2193 31.5854 37.3069 31.5854C38.9285 31.5854 40.3109 30.3378 40.4482 28.6933L41.9888 10.2429C42.0589 9.4032 41.7978 8.5865 41.2536 7.94313ZM3.1545 14.4614H32.8344C33.6691 14.4614 34.3483 15.1405 34.3483 15.9753V17.6623H1.64062V15.9753C1.64062 15.1405 2.31975 14.4614 3.1545 14.4614ZM1.64062 19.3029H34.3483V22.7063H1.64062V19.3029ZM32.8344 36.0037H3.1545C2.31975 36.0037 1.64062 35.3246 1.64062 34.4898V24.3469H34.3483V34.4898C34.3483 35.3246 33.6691 36.0037 32.8344 36.0037ZM40.3539 10.1064L38.8133 28.5567C38.7438 29.3886 38.0103 30.0091 37.1786 29.9394L35.9889 29.8401V15.9753C35.9889 14.2359 34.5738 12.8208 32.8344 12.8208H7.1805L7.75791 7.40345C7.75857 7.39721 7.75914 7.39106 7.75964 7.38474C7.82912 6.55287 8.56214 5.93239 9.39427 6.00211L38.9712 8.47174C39.3742 8.50537 39.74 8.69396 40.0011 9.00272C40.2622 9.31149 40.3875 9.70335 40.3539 10.1064Z" fill="#D0D0D0"/>
<path d="M30.9183 26.7861H23.0234C22.5704 26.7861 22.2031 27.1534 22.2031 27.6064V32.7571C22.2031 33.2102 22.5704 33.5774 23.0234 33.5774H30.9183C31.3713 33.5774 31.7386 33.2102 31.7386 32.7571V27.6064C31.7386 27.1534 31.3713 26.7861 30.9183 26.7861ZM30.098 31.9368H23.8437V28.4268H30.098V31.9368Z" fill="#D0D0D0"/>
</g>
<defs>
<clipPath id="clip0_6065_78792">
<rect width="42" height="42" fill="white"/>
</clipPath>
</defs>
</svg>
