<svg width="24" height="24" viewBox="0 0 24 24" fill="none" xmlns="http://www.w3.org/2000/svg">
<path d="M17.5898 15.6975C17.3808 15.4877 17.1324 15.3213 16.8589 15.2077C16.5854 15.0942 16.2922 15.0357 15.9961 15.0357C15.6999 15.0357 15.4067 15.0942 15.1332 15.2077C14.8597 15.3213 14.6114 15.4877 14.4023 15.6975L13.3148 16.785C12.0904 16.0079 10.9559 15.0973 9.93232 14.07C8.90717 13.0444 7.9968 11.9102 7.21732 10.6875L8.30482 9.59999C8.51458 9.39096 8.68101 9.14257 8.79457 8.86908C8.90814 8.59559 8.96659 8.30237 8.96659 8.00624C8.96659 7.71011 8.90814 7.41689 8.79457 7.1434C8.68101 6.8699 8.51458 6.62152 8.30482 6.41249L6.18232 4.29749C5.97624 4.08703 5.72995 3.92015 5.4581 3.80677C5.18624 3.69339 4.89437 3.63582 4.59982 3.63749C4.30318 3.63676 4.00933 3.6947 3.73516 3.80797C3.461 3.92124 3.21194 4.0876 3.00232 4.29749L1.98232 5.30999C1.49615 5.83271 1.1333 6.45775 0.920443 7.13914C0.707588 7.82054 0.650139 8.54097 0.752319 9.24749C0.992319 12.06 2.83732 15.4425 5.67982 18.2925C8.52232 21.1425 11.9423 22.98 14.7548 23.25C14.9647 23.2612 15.175 23.2612 15.3848 23.25C15.9902 23.2754 16.5946 23.1797 17.1626 22.9685C17.7305 22.7573 18.2506 22.4348 18.6923 22.02L19.7048 21C19.9147 20.7904 20.0811 20.5413 20.1943 20.2671C20.3076 19.993 20.3655 19.6991 20.3648 19.4025C20.3665 19.1079 20.3089 18.8161 20.1955 18.5442C20.0821 18.2724 19.9153 18.0261 19.7048 17.82L17.5898 15.6975ZM18.6473 19.9425L17.6273 20.955C17.2502 21.2693 16.8099 21.4989 16.3363 21.6283C15.8627 21.7577 15.3669 21.7839 14.8823 21.705C12.4448 21.495 9.33982 19.77 6.77482 17.205C4.20982 14.64 2.48482 11.5575 2.25232 9.11999C2.17144 8.63542 2.19661 8.13908 2.32609 7.66518C2.45557 7.19129 2.68628 6.7511 3.00232 6.37499L4.05982 5.35499C4.1299 5.28548 4.21301 5.23048 4.30439 5.19316C4.39577 5.15583 4.49361 5.13692 4.59232 5.13749C4.69102 5.13692 4.78887 5.15583 4.88025 5.19316C4.97163 5.23048 5.05474 5.28548 5.12482 5.35499L7.24732 7.49999C7.38701 7.64051 7.46541 7.8306 7.46541 8.02874C7.46541 8.22688 7.38701 8.41697 7.24732 8.55749L5.74732 10.0575C5.62994 10.1743 5.55452 10.3266 5.53281 10.4908C5.5111 10.655 5.54433 10.8217 5.62732 10.965C6.52536 12.4938 7.61687 13.9004 8.87482 15.15C10.1244 16.4079 11.531 17.4994 13.0598 18.3975C13.2031 18.4805 13.3698 18.5137 13.534 18.492C13.6982 18.4703 13.8505 18.3949 13.9673 18.2775L15.4673 16.7775C15.6078 16.6378 15.7979 16.5594 15.9961 16.5594C16.1942 16.5594 16.3843 16.6378 16.5248 16.7775L18.6473 18.9C18.7168 18.9701 18.7718 19.0532 18.8091 19.1446C18.8465 19.2359 18.8654 19.3338 18.8648 19.4325C18.8601 19.624 18.7823 19.8065 18.6473 19.9425Z" fill="white"/>
<path d="M19.95 4.04252C18.9077 2.99625 17.6686 2.16665 16.3041 1.60156C14.9397 1.03647 13.4768 0.747059 12 0.750023C11.8011 0.750023 11.6103 0.82904 11.4697 0.969693C11.329 1.11034 11.25 1.30111 11.25 1.50002C11.25 1.69894 11.329 1.8897 11.4697 2.03035C11.6103 2.17101 11.8011 2.25002 12 2.25002C13.2874 2.24998 14.562 2.50488 15.7503 3.00001C16.9387 3.49515 18.0172 4.22071 18.9236 5.13484C19.8301 6.04897 20.5465 7.13356 21.0316 8.32602C21.5167 9.51849 21.7609 10.7952 21.75 12.0825C21.75 12.2814 21.829 12.4722 21.9697 12.6129C22.1103 12.7535 22.3011 12.8325 22.5 12.8325C22.6989 12.8325 22.8897 12.7535 23.0303 12.6129C23.171 12.4722 23.25 12.2814 23.25 12.0825C23.2644 10.59 22.9798 9.10966 22.413 7.72882C21.8463 6.34799 21.0088 5.0946 19.95 4.04252Z" fill="white"/>
<path d="M15.6803 8.33249C16.1059 8.75556 16.4427 9.25949 16.6706 9.81462C16.8986 10.3698 17.0133 10.9649 17.0078 11.565C17.0078 11.7639 17.0868 11.9547 17.2275 12.0953C17.3681 12.236 17.5589 12.315 17.7578 12.315C17.9567 12.315 18.1475 12.236 18.2881 12.0953C18.4288 11.9547 18.5078 11.7639 18.5078 11.565C18.5177 10.7708 18.3699 9.98249 18.0728 9.24585C17.7757 8.50922 17.3353 7.8389 16.7772 7.27378C16.219 6.70866 15.5542 6.25999 14.8214 5.95378C14.0885 5.64757 13.3021 5.48993 12.5078 5.48999C12.3089 5.48999 12.1181 5.56901 11.9775 5.70966C11.8368 5.85031 11.7578 6.04108 11.7578 6.23999C11.7578 6.4389 11.8368 6.62967 11.9775 6.77032C12.1181 6.91097 12.3089 6.98999 12.5078 6.98999C13.0989 6.99444 13.6833 7.1153 14.2276 7.34565C14.772 7.576 15.2656 7.91133 15.6803 8.33249Z" fill="white"/>
</svg>
