<svg width="0" height="0" class="hidden">
  <symbol xmlns="http://www.w3.org/2000/svg" viewBox="0 0 27 27" id="icon-arrow-round">
    <path d="M0.514923 13.61C0.514923 6.4909 6.28292 0.7229 13.402 0.7229C20.5211 0.7229 26.2891 6.4909 26.2891 13.61C26.2891 20.729 20.5211 26.497 13.402 26.497C6.28292 26.497 0.514923 20.729 0.514923 13.61ZM13.402 24.8342C19.5701 24.8342 24.6262 19.8405 24.6262 13.61C24.6262 7.44184 19.6325 2.38575 13.402 2.38575C7.23387 2.38575 2.17777 7.37949 2.17777 13.61C2.17777 19.7781 7.17151 24.8342 13.402 24.8342ZM14.0515 20.0275L20.0326 14.0517C20.2768 13.8074 20.2768 13.4125 20.0326 13.1683L14.0515 7.19242C13.8073 6.94819 13.4124 6.94819 13.1682 7.19242L12.8096 7.55097C12.5654 7.7952 12.5654 8.20052 12.82 8.43955L17.2629 12.7266H7.37417C7.03121 12.7266 6.7506 13.0072 6.7506 13.3502V13.8698C6.7506 14.2128 7.03121 14.4934 7.37417 14.4934H17.2629L12.8148 18.7804C12.5654 19.0246 12.5602 19.4247 12.8044 19.669L13.163 20.0275C13.4124 20.2718 13.8073 20.2718 14.0515 20.0275Z" ></path>
  </symbol>
	<symbol fill="none" xmlns="http://www.w3.org/2000/svg" viewBox="0 0 22 22" id="icon-bag">
    <path d="M10.9947 12.2512C10.0406 12.2523 9.11566 11.9227 8.37733 11.3185C7.63899 10.7143 7.13291 9.87284 6.94528 8.93742C6.93033 8.83889 6.93698 8.73828 6.96476 8.64257C6.99255 8.54686 7.04081 8.45834 7.10621 8.38313C7.1716 8.30793 7.25257 8.24784 7.34349 8.20703C7.43442 8.16622 7.53313 8.14567 7.63278 8.1468C7.79657 8.14442 7.95582 8.20059 8.08187 8.30521C8.20791 8.40982 8.29246 8.556 8.32029 8.71743C8.44976 9.33543 8.78797 9.89006 9.2781 10.2881C9.76823 10.6862 10.3804 10.9035 11.0118 10.9035C11.6433 10.9035 12.2555 10.6862 12.7456 10.2881C13.2357 9.89006 13.5739 9.33543 13.7034 8.71743C13.7312 8.556 13.8158 8.40982 13.9418 8.30521C14.0679 8.20059 14.2271 8.14442 14.3909 8.1468C14.4906 8.14567 14.5893 8.16622 14.6802 8.20703C14.7711 8.24784 14.8521 8.30793 14.9175 8.38313C14.9829 8.45834 15.0311 8.54686 15.0589 8.64257C15.0867 8.73828 15.0934 8.83889 15.0784 8.93742C14.8897 9.87866 14.3785 10.7246 13.6331 11.3295C12.8877 11.9344 11.9546 12.2603 10.9947 12.2512Z" fill="white"></path>
    <path d="M17.1151 21.3125H4.87758C4.59783 21.3129 4.32093 21.2563 4.06373 21.1463C3.80653 21.0363 3.5744 20.875 3.38147 20.6725C3.18853 20.4699 3.03883 20.2302 2.94146 19.9679C2.84409 19.7057 2.80109 19.4263 2.81508 19.1469L3.37196 7.29442C3.395 6.76304 3.62243 6.26112 4.00676 5.89345C4.39108 5.52578 4.90259 5.32079 5.43446 5.32129H16.5582C17.0901 5.32079 17.6016 5.52578 17.9859 5.89345C18.3702 6.26112 18.5977 6.76304 18.6207 7.29442L19.1776 19.1469C19.1916 19.4263 19.1486 19.7057 19.0512 19.9679C18.9538 20.2302 18.8041 20.4699 18.6112 20.6725C18.4183 20.875 18.1861 21.0363 17.9289 21.1463C17.6717 21.2563 17.3948 21.3129 17.1151 21.3125ZM5.43446 6.70317C5.25212 6.70317 5.07725 6.7756 4.94832 6.90453C4.81939 7.03346 4.74696 7.20833 4.74696 7.39067L4.19008 19.2157C4.18542 19.3088 4.19975 19.4019 4.23221 19.4893C4.26466 19.5768 4.31457 19.6567 4.37888 19.7242C4.44319 19.7917 4.52056 19.8455 4.6063 19.8821C4.69203 19.9188 4.78433 19.9377 4.87758 19.9375H17.1151C17.2083 19.9377 17.3006 19.9188 17.3864 19.8821C17.4721 19.8455 17.5495 19.7917 17.6138 19.7242C17.6781 19.6567 17.728 19.5768 17.7605 19.4893C17.7929 19.4019 17.8072 19.3088 17.8026 19.2157L17.2457 7.36317C17.2457 7.18083 17.1733 7.00596 17.0443 6.87703C16.9154 6.7481 16.7405 6.67567 16.5582 6.67567L5.43446 6.70317Z" fill="white"></path>
    <path d="M15.125 6.01562H13.75V4.8125C13.75 4.08315 13.4603 3.38368 12.9445 2.86796C12.4288 2.35223 11.7293 2.0625 11 2.0625C10.2707 2.0625 9.57118 2.35223 9.05546 2.86796C8.53973 3.38368 8.25 4.08315 8.25 4.8125V6.01562H6.875V4.8125C6.875 3.71848 7.3096 2.66927 8.08318 1.89568C8.85677 1.1221 9.90598 0.6875 11 0.6875C12.094 0.6875 13.1432 1.1221 13.9168 1.89568C14.6904 2.66927 15.125 3.71848 15.125 4.8125V6.01562Z" fill="white"></path>
  </symbol>
	<symbol xmlns="http://www.w3.org/2000/svg" viewBox="0 0 8 17" id="icon-facebook">
    <path d="M7.99674 6.89171L7.7353 9.25829C7.72401 9.36822 7.67536 9.46974 7.59872 9.54327C7.52209 9.6168 7.4229 9.65712 7.32031 9.65645H5.0379V16.6801C5.03846 16.764 5.00823 16.8447 4.95381 16.9046C4.89939 16.9645 4.8252 16.9988 4.74741 17H2.42143C2.38274 16.9994 2.34453 16.9906 2.30899 16.9741C2.27345 16.9576 2.24127 16.9337 2.2143 16.9038C2.18732 16.8739 2.16608 16.8386 2.15177 16.7998C2.13747 16.761 2.13039 16.7196 2.13094 16.6779L2.14339 9.65645H0.414984C0.304923 9.65645 0.19937 9.60931 0.121546 9.52542C0.0437211 9.44152 0 9.32773 0 9.20908V6.8425C0 6.72385 0.0437211 6.61006 0.121546 6.52616C0.19937 6.44227 0.304923 6.39513 0.414984 6.39513H2.13302V4.10013C2.13302 1.445 3.59791 0 5.74338 0H7.50083C7.61089 0 7.71644 0.047133 7.79427 0.131031C7.87209 0.214929 7.91582 0.328719 7.91582 0.447368V2.44039C7.91582 2.55904 7.87209 2.67283 7.79427 2.75673C7.71644 2.84063 7.61089 2.88776 7.50083 2.88776H6.42395C5.25784 2.90789 5.0379 3.5096 5.0379 4.40882V6.38842H7.59213C7.6504 6.3895 7.70781 6.40379 7.76062 6.43038C7.81343 6.45697 7.86044 6.49525 7.89861 6.54273C7.93679 6.59021 7.96525 6.64582 7.98216 6.70595C7.99906 6.76608 8.00403 6.82937 7.99674 6.89171Z"></path>
  </symbol>
	<symbol xmlns="http://www.w3.org/2000/svg" viewBox="0 0 17 17" id="icon-insta">
    <path d="M11.9358 0H5.06421C3.72164 0.00177549 2.43457 0.535895 1.48523 1.48523C0.535895 2.43457 0.00177549 3.72164 0 5.06421V11.9358C0.00177549 13.2784 0.535895 14.5654 1.48523 15.5148C2.43457 16.4641 3.72164 16.9982 5.06421 17H11.9358C13.2785 16.9988 14.566 16.4649 15.5154 15.5154C16.4649 14.566 16.9988 13.2785 17 11.9358V5.06421C16.9982 3.72164 16.4641 2.43457 15.5148 1.48523C14.5654 0.535895 13.2784 0.00177549 11.9358 0ZM15.2911 11.9358C15.2911 12.8257 14.9376 13.6791 14.3083 14.3083C13.6791 14.9376 12.8257 15.2911 11.9358 15.2911H5.06421C4.17434 15.2911 3.32091 14.9376 2.69168 14.3083C2.06245 13.6791 1.70895 12.8257 1.70895 11.9358V5.06421C1.70895 4.17434 2.06245 3.32091 2.69168 2.69168C3.32091 2.06245 4.17434 1.70895 5.06421 1.70895H11.9358C12.8257 1.70895 13.6791 2.06245 14.3083 2.69168C14.9376 3.32091 15.2911 4.17434 15.2911 5.06421V11.9358Z" ></path>
    <path d="M8.50144 4.10449C7.63148 4.10405 6.78093 4.36165 6.0574 4.8447C5.33387 5.32774 4.76987 6.01454 4.43674 6.81819C4.10362 7.62185 4.01634 8.50625 4.18595 9.35951C4.35557 10.2128 4.77445 10.9966 5.3896 11.6117C6.00476 12.2269 6.78855 12.6458 7.64182 12.8154C8.49509 12.985 9.37949 12.8977 10.1831 12.5646C10.9868 12.2315 11.6736 11.6675 12.1566 10.9439C12.6397 10.2204 12.8973 9.36985 12.8968 8.49989C12.8957 7.33452 12.4322 6.21722 11.6082 5.39318C10.7841 4.56914 9.66681 4.10568 8.50144 4.10449ZM8.50144 11.1841C7.97056 11.1841 7.45159 11.0267 7.01017 10.7317C6.56876 10.4368 6.22471 10.0176 6.02155 9.52709C5.81839 9.03662 5.76523 8.49691 5.8688 7.97622C5.97237 7.45554 6.22802 6.97726 6.60342 6.60186C6.97881 6.22647 7.45709 5.97082 7.97778 5.86725C8.49847 5.76368 9.03817 5.81684 9.52865 6.02C10.0191 6.22316 10.4383 6.56721 10.7333 7.00862C11.0282 7.45004 11.1857 7.969 11.1857 8.49989C11.1857 9.21179 10.9029 9.89453 10.3995 10.3979C9.89608 10.9013 9.21334 11.1841 8.50144 11.1841Z"></path>
    <path d="M12.923 5.19179C13.5234 5.19179 14.0101 4.70507 14.0101 4.10468C14.0101 3.50429 13.5234 3.01758 12.923 3.01758C12.3226 3.01758 11.8359 3.50429 11.8359 4.10468C11.8359 4.70507 12.3226 5.19179 12.923 5.19179Z" ></path>
  </symbol>
	<symbol fill="none" xmlns="http://www.w3.org/2000/svg" viewBox="0 0 14 14" id="icon-close">
    <path d="M8.28263 7.01144L13.734 1.55995C14.0887 1.20535 14.0887 0.632019 13.734 0.277422C13.3794 -0.0771746 12.806 -0.0771746 12.4514 0.277422L6.99994 5.72892L1.5486 0.277422C1.19384 -0.0771746 0.62067 -0.0771746 0.266073 0.277422C-0.0886909 0.632019 -0.0886909 1.20535 0.266073 1.55995L5.71741 7.01144L0.266073 12.4629C-0.0886909 12.8175 -0.0886909 13.3909 0.266073 13.7455C0.44279 13.9223 0.675147 14.0112 0.907338 14.0112C1.13953 14.0112 1.37172 13.9223 1.5486 13.7455L6.99994 8.29397L12.4514 13.7455C12.6283 13.9223 12.8605 14.0112 13.0927 14.0112C13.3249 14.0112 13.5571 13.9223 13.734 13.7455C14.0887 13.3909 14.0887 12.8175 13.734 12.4629L8.28263 7.01144Z" fill="#B4B4B4"></path>
  </symbol>
	<symbol fill="none" xmlns="http://www.w3.org/2000/svg" viewBox="0 0 43 43" id="icon-ok">
    <path d="M31.004 14.6779C31.6601 15.334 31.6601 16.3976 31.004 17.0534L19.7357 28.3221C19.0795 28.9779 18.0163 28.9779 17.3602 28.3221L11.996 22.9576C11.3399 22.3018 11.3399 21.2382 11.996 20.5824C12.6518 19.9263 13.7154 19.9263 14.3712 20.5824L18.5478 24.759L28.6285 14.6779C29.2846 14.0221 30.3482 14.0221 31.004 14.6779ZM43 21.5C43 33.3841 33.3825 43 21.5 43C9.61588 43 0 33.3825 0 21.5C0 9.61588 9.61752 0 21.5 0C33.3841 0 43 9.61752 43 21.5ZM39.6406 21.5C39.6406 11.4727 31.526 3.35938 21.5 3.35938C11.4727 3.35938 3.35938 11.474 3.35938 21.5C3.35938 31.5273 11.474 39.6406 21.5 39.6406C31.5273 39.6406 39.6406 31.526 39.6406 21.5Z" fill="#F08F8E"></path>
  </symbol>
	<symbol fill="none" xmlns="http://www.w3.org/2000/svg" viewBox="0 0 58 25" id="more-logo">
    <path d="M5.94728 3.86834L3.5812 1.19092H0.203125V11.5202H3.42441V5.75664L5.19184 7.75766H6.6457L8.44164 5.71436V11.5202H11.6629V1.19092H8.3276L5.94728 3.86834Z" fill="black"></path>
    <path d="M18.5653 0.9375H17.9952C14.218 0.979775 13.0349 2.14939 12.9922 5.8837V6.82784C13.0349 10.5621 14.218 11.7318 17.9952 11.774H18.5653C22.3425 11.7318 23.5255 10.5621 23.5683 6.82784V5.8837C23.5255 2.14939 22.3425 0.979775 18.5653 0.9375ZM20.347 6.74329C20.347 8.39202 20.0192 8.71613 18.3515 8.71613H18.2375C16.5698 8.71613 16.242 8.39202 16.242 6.74329V5.94006C16.242 4.31952 16.5698 3.96722 18.2375 3.96722H18.3515C20.0192 3.96722 20.347 4.31952 20.347 5.94006V6.74329Z" fill="black"></path>
    <path d="M34.6556 4.72794C34.6556 2.4169 33.2873 1.19092 30.6504 1.19092H24.9062V11.5202H28.1275V8.15223H29.3676L31.2348 11.5202H34.8552L32.7029 7.81403C33.9572 7.29263 34.6556 6.24985 34.6556 4.72794ZM30.7217 5.1366H28.1275V4.19245H30.7217C31.1778 4.19245 31.4201 4.36156 31.4201 4.67157C31.4201 4.98159 31.2205 5.1366 30.7217 5.1366Z" fill="black"></path>
    <path d="M45.4758 8.50452H39.19V7.75766H45.4758V4.92522H39.19V4.19245H45.4758V1.19092H35.9688V11.5202H45.4758V8.50452Z" fill="black"></path>
    <path d="M5.94728 17.2135L3.5812 14.522H0.203125V24.8512H3.42441V19.1018L5.19184 21.0887H6.6457L8.44164 19.0595V24.8512H11.6629V14.522H8.3276L5.94728 17.2135Z" fill="black"></path>
    <path d="M13.0859 24.8512H22.593V21.8497H16.3072V21.0887H22.593V18.2563H16.3072V17.5376H22.593V14.522H13.0859V24.8512Z" fill="black"></path>
    <path d="M28.4121 14.522H24.0078V24.8512H28.4121C32.1893 24.8512 33.857 23.5548 33.857 19.905V19.4682C33.857 15.8325 32.1893 14.522 28.4121 14.522ZM30.6357 19.8346C30.6357 21.3001 29.9658 21.8356 28.1841 21.8356H27.2291V17.5235H28.1841C29.9658 17.5235 30.6357 18.0731 30.6357 19.5245V19.8346Z" fill="black"></path>
    <path d="M53.3649 14.522H49.3597L45.1406 24.8512H48.533L49.2029 23.1461H53.5074L54.1773 24.8512H57.5982L53.3649 14.522ZM50.3717 20.1305L51.3551 17.6081L52.3386 20.1305H50.3717Z" fill="black"></path>
    <path d="M41.4494 14.522H38.2282H36.6888H35.0781V17.5376H36.6888H38.2282V21.8497H36.6888H35.0781V24.8512H36.6888H38.2282H41.4494H42.9746H44.5852V21.8497H42.9746H41.4494V17.5376H42.9746H44.5852V14.522H42.9746H41.4494Z" fill="black"></path>
  </symbol>
</svg>