<svg width="0" height="0" class="hidden">
  <symbol xmlns="http://www.w3.org/2000/svg" viewBox="0 0 27 27" id="icon-arrow-round">
    <path d="M0.514923 13.61C0.514923 6.4909 6.28292 0.7229 13.402 0.7229C20.5211 0.7229 26.2891 6.4909 26.2891 13.61C26.2891 20.729 20.5211 26.497 13.402 26.497C6.28292 26.497 0.514923 20.729 0.514923 13.61ZM13.402 24.8342C19.5701 24.8342 24.6262 19.8405 24.6262 13.61C24.6262 7.44184 19.6325 2.38575 13.402 2.38575C7.23387 2.38575 2.17777 7.37949 2.17777 13.61C2.17777 19.7781 7.17151 24.8342 13.402 24.8342ZM14.0515 20.0275L20.0326 14.0517C20.2768 13.8074 20.2768 13.4125 20.0326 13.1683L14.0515 7.19242C13.8073 6.94819 13.4124 6.94819 13.1682 7.19242L12.8096 7.55097C12.5654 7.7952 12.5654 8.20052 12.82 8.43955L17.2629 12.7266H7.37417C7.03121 12.7266 6.7506 13.0072 6.7506 13.3502V13.8698C6.7506 14.2128 7.03121 14.4934 7.37417 14.4934H17.2629L12.8148 18.7804C12.5654 19.0246 12.5602 19.4247 12.8044 19.669L13.163 20.0275C13.4124 20.2718 13.8073 20.2718 14.0515 20.0275Z" ></path>
  </symbol>
	<symbol fill="none" xmlns="http://www.w3.org/2000/svg" viewBox="0 0 22 22" id="icon-bag">
    <path d="M10.9947 12.2512C10.0406 12.2523 9.11566 11.9227 8.37733 11.3185C7.63899 10.7143 7.13291 9.87284 6.94528 8.93742C6.93033 8.83889 6.93698 8.73828 6.96476 8.64257C6.99255 8.54686 7.04081 8.45834 7.10621 8.38313C7.1716 8.30793 7.25257 8.24784 7.34349 8.20703C7.43442 8.16622 7.53313 8.14567 7.63278 8.1468C7.79657 8.14442 7.95582 8.20059 8.08187 8.30521C8.20791 8.40982 8.29246 8.556 8.32029 8.71743C8.44976 9.33543 8.78797 9.89006 9.2781 10.2881C9.76823 10.6862 10.3804 10.9035 11.0118 10.9035C11.6433 10.9035 12.2555 10.6862 12.7456 10.2881C13.2357 9.89006 13.5739 9.33543 13.7034 8.71743C13.7312 8.556 13.8158 8.40982 13.9418 8.30521C14.0679 8.20059 14.2271 8.14442 14.3909 8.1468C14.4906 8.14567 14.5893 8.16622 14.6802 8.20703C14.7711 8.24784 14.8521 8.30793 14.9175 8.38313C14.9829 8.45834 15.0311 8.54686 15.0589 8.64257C15.0867 8.73828 15.0934 8.83889 15.0784 8.93742C14.8897 9.87866 14.3785 10.7246 13.6331 11.3295C12.8877 11.9344 11.9546 12.2603 10.9947 12.2512Z" fill="white"></path>
    <path d="M17.1151 21.3125H4.87758C4.59783 21.3129 4.32093 21.2563 4.06373 21.1463C3.80653 21.0363 3.5744 20.875 3.38147 20.6725C3.18853 20.4699 3.03883 20.2302 2.94146 19.9679C2.84409 19.7057 2.80109 19.4263 2.81508 19.1469L3.37196 7.29442C3.395 6.76304 3.62243 6.26112 4.00676 5.89345C4.39108 5.52578 4.90259 5.32079 5.43446 5.32129H16.5582C17.0901 5.32079 17.6016 5.52578 17.9859 5.89345C18.3702 6.26112 18.5977 6.76304 18.6207 7.29442L19.1776 19.1469C19.1916 19.4263 19.1486 19.7057 19.0512 19.9679C18.9538 20.2302 18.8041 20.4699 18.6112 20.6725C18.4183 20.875 18.1861 21.0363 17.9289 21.1463C17.6717 21.2563 17.3948 21.3129 17.1151 21.3125ZM5.43446 6.70317C5.25212 6.70317 5.07725 6.7756 4.94832 6.90453C4.81939 7.03346 4.74696 7.20833 4.74696 7.39067L4.19008 19.2157C4.18542 19.3088 4.19975 19.4019 4.23221 19.4893C4.26466 19.5768 4.31457 19.6567 4.37888 19.7242C4.44319 19.7917 4.52056 19.8455 4.6063 19.8821C4.69203 19.9188 4.78433 19.9377 4.87758 19.9375H17.1151C17.2083 19.9377 17.3006 19.9188 17.3864 19.8821C17.4721 19.8455 17.5495 19.7917 17.6138 19.7242C17.6781 19.6567 17.728 19.5768 17.7605 19.4893C17.7929 19.4019 17.8072 19.3088 17.8026 19.2157L17.2457 7.36317C17.2457 7.18083 17.1733 7.00596 17.0443 6.87703C16.9154 6.7481 16.7405 6.67567 16.5582 6.67567L5.43446 6.70317Z" fill="white"></path>
    <path d="M15.125 6.01562H13.75V4.8125C13.75 4.08315 13.4603 3.38368 12.9445 2.86796C12.4288 2.35223 11.7293 2.0625 11 2.0625C10.2707 2.0625 9.57118 2.35223 9.05546 2.86796C8.53973 3.38368 8.25 4.08315 8.25 4.8125V6.01562H6.875V4.8125C6.875 3.71848 7.3096 2.66927 8.08318 1.89568C8.85677 1.1221 9.90598 0.6875 11 0.6875C12.094 0.6875 13.1432 1.1221 13.9168 1.89568C14.6904 2.66927 15.125 3.71848 15.125 4.8125V6.01562Z" fill="white"></path>
  </symbol>
</svg>