<svg width="55" height="55" viewBox="0 0 55 55" fill="none" xmlns="http://www.w3.org/2000/svg">
<path d="M27.5 54.1406C42.2132 54.1406 54.1406 42.2132 54.1406 27.5C54.1406 12.7868 42.2132 0.859375 27.5 0.859375C12.7868 0.859375 0.859375 12.7868 0.859375 27.5C0.859375 42.2132 12.7868 54.1406 27.5 54.1406Z" fill="#ECECEC"/>
<path d="M48.8763 43.3768C46.3916 40.0504 43.1654 37.3493 39.4539 35.4883C35.7425 33.6272 31.6481 32.6576 27.4962 32.6563C23.3443 32.6549 19.2493 33.6221 15.5366 35.4808C11.824 37.3395 8.59607 40.0385 6.10938 43.3634C8.58343 46.7051 11.8061 49.4206 15.5189 51.2922C19.2318 53.1638 23.3315 54.1394 27.4894 54.1407C31.6473 54.142 35.7477 53.169 39.4617 51.2997C43.1757 49.4305 46.4001 46.717 48.8763 43.3768Z" fill="#D4D4D4"/>
<path d="M27.5 29.2188C33.1954 29.2188 37.8125 24.6017 37.8125 18.9062C37.8125 13.2108 33.1954 8.59375 27.5 8.59375C21.8046 8.59375 17.1875 13.2108 17.1875 18.9062C17.1875 24.6017 21.8046 29.2188 27.5 29.2188Z" fill="#D4D4D4"/>
</svg>
