<svg width="120" height="55" viewBox="0 0 120 55" fill="none" xmlns="http://www.w3.org/2000/svg">
<path d="M36.9473 18.8683L34.5812 16.1909H31.2031V26.5202H34.4244V20.7566L36.1918 22.7577H37.6457L39.4416 20.7144V26.5202H42.6629V16.1909H39.3276L36.9473 18.8683Z" fill="black"/>
<path d="M49.5653 15.9375H48.9952C45.218 15.9798 44.0349 17.1494 43.9922 20.8837V21.8278C44.0349 25.5621 45.218 26.7318 48.9952 26.774H49.5653C53.3425 26.7318 54.5255 25.5621 54.5683 21.8278V20.8837C54.5255 17.1494 53.3425 15.9798 49.5653 15.9375ZM51.347 21.7433C51.347 23.392 51.0192 23.7161 49.3515 23.7161H49.2375C47.5698 23.7161 47.242 23.392 47.242 21.7433V20.9401C47.242 19.3195 47.5698 18.9672 49.2375 18.9672H49.3515C51.0192 18.9672 51.347 19.3195 51.347 20.9401V21.7433Z" fill="black"/>
<path d="M65.6556 19.7279C65.6556 17.4169 64.2873 16.1909 61.6504 16.1909H55.9062V26.5202H59.1275V23.1522H60.3676L62.2348 26.5202H65.8552L63.7029 22.814C64.9572 22.2926 65.6556 21.2498 65.6556 19.7279ZM61.7217 20.1366H59.1275V19.1925H61.7217C62.1778 19.1925 62.4201 19.3616 62.4201 19.6716C62.4201 19.9816 62.2205 20.1366 61.7217 20.1366Z" fill="black"/>
<path d="M76.4758 23.5045H70.19V22.7577H76.4758V19.9252H70.19V19.1925H76.4758V16.1909H66.9688V26.5202H76.4758V23.5045Z" fill="black"/>
<path d="M36.9473 32.2135L34.5812 29.522H31.2031V39.8512H34.4244V34.1018L36.1918 36.0887H37.6457L39.4416 34.0595V39.8512H42.6629V29.522H39.3276L36.9473 32.2135Z" fill="black"/>
<path d="M44.0859 39.8512H53.593V36.8497H47.3072V36.0887H53.593V33.2563H47.3072V32.5376H53.593V29.522H44.0859V39.8512Z" fill="black"/>
<path d="M59.4121 29.522H55.0078V39.8512H59.4121C63.1893 39.8512 64.857 38.5548 64.857 34.905V34.4682C64.857 30.8325 63.1893 29.522 59.4121 29.522ZM61.6357 34.8346C61.6357 36.3001 60.9658 36.8356 59.1841 36.8356H58.2291V32.5235H59.1841C60.9658 32.5235 61.6357 33.0731 61.6357 34.5245V34.8346Z" fill="black"/>
<path d="M84.3649 29.522H80.3597L76.1406 39.8512H79.533L80.2029 38.1461H84.5074L85.1773 39.8512H88.5982L84.3649 29.522ZM81.3717 35.1305L82.3551 32.6081L83.3386 35.1305H81.3717Z" fill="black"/>
<path d="M72.4494 29.522H69.2282H67.6888H66.0781V32.5376H67.6888H69.2282V36.8497H67.6888H66.0781V39.8512H67.6888H69.2282H72.4494H73.9746H75.5852V36.8497H73.9746H72.4494V32.5376H73.9746H75.5852V29.522H73.9746H72.4494Z" fill="black"/>
</svg>
